<?xml version="1.0" encoding="UTF-8"?>
<svg width="51px" height="52px" viewBox="0 0 51 52" version="1.1" xmlns="http://www.w3.org/2000/svg" xmlns:xlink="http://www.w3.org/1999/xlink">
    <title>Group 8</title>
    <defs>
        <polygon id="path-1" points="0 0.342739977 50.4564191 0.342739977 50.4564191 50.7999991 0 50.7999991"></polygon>
    </defs>
    <g id="home-(desktop)" stroke="none" stroke-width="1" fill="none" fill-rule="evenodd">
        <g id="home" transform="translate(-407.000000, -3081.000000)">
            <g id="Group-8" transform="translate(407.000000, 3081.000000)">
                <g id="Group-3" transform="translate(0.000000, 0.056700)">
                    <mask id="mask-2" fill="white">
                        <use xlink:href="#path-1"></use>
                    </mask>
                    <g id="Clip-2"></g>
                    <path d="M45.9806192,36.8757394 C45.9806192,42.0851393 41.7414193,46.3229392 36.5334194,46.3229392 L13.9234198,46.3229392 C8.71541985,46.3229392 4.47621992,42.0851393 4.47621992,36.8757394 L4.47621992,14.2671397 C4.47621992,9.05773983 8.71541985,4.8199399 13.9234198,4.8199399 L36.5320194,4.8199399 C41.7414193,4.8199399 45.9806192,9.05773983 45.9806192,14.2671397 L45.9806192,36.8757394 Z M36.5320194,0.342739977 L13.9234198,0.342739977 C6.24581989,0.342739977 -0.000979999983,6.58953987 -0.000979999983,14.2671397 L-0.000979999983,36.8757394 C-0.000979999983,44.5533392 6.24581989,50.8001391 13.9234198,50.8001391 L36.5320194,50.8001391 C44.2096192,50.8001391 50.4564191,44.5533392 50.4564191,36.8757394 L50.4564191,14.2671397 C50.4564191,6.58953987 44.2096192,0.342739977 36.5320194,0.342739977 L36.5320194,0.342739977 Z" id="Fill-1" fill="#000205" mask="url(#mask-2)"></path>
                </g>
                <path d="M25.2293996,34.1523194 C20.5281997,34.1523194 16.7033997,30.3289195 16.7033997,25.6291195 C16.7033997,20.9279196 20.5281997,17.1045197 25.2293996,17.1045197 C29.9291995,17.1045197 33.7539994,20.9279196 33.7539994,25.6291195 C33.7539994,30.3289195 29.9291995,34.1523194 25.2293996,34.1523194 M25.2293996,12.6273198 C18.0585997,12.6273198 12.2261998,18.4611197 12.2261998,25.6291195 C12.2261998,32.7985194 18.0585997,38.6295193 25.2293996,38.6295193 C32.3973994,38.6295193 38.2297993,32.7985194 38.2297993,25.6291195 C38.2297993,18.4611197 32.3973994,12.6273198 25.2293996,12.6273198" id="Fill-4" fill="#000205"></path>
                <path d="M38.7755193,8.83135983 C37.9117194,8.83135983 37.0633194,9.18135983 36.4571194,9.79315982 C35.8425194,10.4007598 35.4925194,11.2491598 35.4925194,12.1143598 C35.4925194,12.9767598 35.8453194,13.8237597 36.4571194,14.4355597 C37.0633194,15.0445597 37.9117194,15.3973597 38.7755193,15.3973597 C39.6407193,15.3973597 40.4849193,15.0445597 41.0967193,14.4355597 C41.7099193,13.8237597 42.0585193,12.9767598 42.0585193,12.1143598 C42.0585193,11.2491598 41.7099193,10.4007598 41.0967193,9.79315982 C40.4891193,9.18135983 39.6407193,8.83135983 38.7755193,8.83135983" id="Fill-6" fill="#000205"></path>
            </g>
        </g>
    </g>
</svg>