<svg width="245" height="22" viewBox="0 0 245 22" fill="none" xmlns="http://www.w3.org/2000/svg">
<mask id="mask0_848_1664" style="mask-type:alpha" maskUnits="userSpaceOnUse" x="0" y="0" width="129" height="22">
<path fill-rule="evenodd" clip-rule="evenodd" d="M0 0H128.531V21.2013H0V0Z" fill="white"/>
</mask>
<g mask="url(#mask0_848_1664)">
<path fill-rule="evenodd" clip-rule="evenodd" d="M126.007 15.7656C124.612 15.7656 123.482 16.9066 123.482 18.3142C123.482 19.7218 124.612 20.8635 126.007 20.8635C127.401 20.8635 128.531 19.7218 128.531 18.3142C128.531 16.9066 127.401 15.7656 126.007 15.7656ZM113.066 12.0194C113.355 10.1769 114.514 9.26979 115.846 9.26979C117.555 9.26979 118.25 10.4105 118.25 12.0194H113.066ZM115.759 5.99482C112.312 5.99482 108.981 8.88998 108.981 13.5989C108.981 18.3941 112.138 21.2014 116.251 21.2014C117.96 21.2014 119.872 20.5877 121.35 19.5642L119.93 16.9614C118.887 17.6046 117.903 17.9264 116.831 17.9264C114.919 17.9264 113.471 16.9614 113.094 14.8554H121.697C121.784 14.505 121.871 13.7156 121.871 12.955C121.871 9.00711 119.843 5.99482 115.759 5.99482ZM98.6583 12.0194C98.9485 10.1769 100.107 9.26979 101.439 9.26979C103.148 9.26979 103.843 10.4105 103.843 12.0194H98.6583ZM101.352 5.99482C97.9055 5.99482 94.5745 8.88998 94.5745 13.5989C94.5745 18.3941 97.7316 21.2014 101.845 21.2014C103.554 21.2014 105.465 20.5877 106.943 19.5642L105.523 16.9614C104.48 17.6046 103.496 17.9264 102.424 17.9264C100.512 17.9264 99.0642 16.9614 98.6873 14.8554H107.29C107.377 14.505 107.464 13.7156 107.464 12.955C107.464 9.00711 105.437 5.99482 101.352 5.99482ZM91.4651 5.46822C91.4651 3.97672 92.0731 3.39223 93.1161 3.39223C93.5794 3.39223 94.1008 3.50879 94.5933 3.68462L95.3754 0.525636C94.7383 0.292387 93.6957 0 92.508 0C88.6263 0 87.2074 2.51507 87.2074 5.58564V6.33691H85.2957V9.70905H87.2074V20.8503H91.4651V9.70905H94.0433V6.34567H91.4651V5.46822ZM76.6375 5.58564L76.6317 6.33691H74.7257V9.70905H76.6375V20.8503H80.8954V9.70905H83.4732V6.34567H80.8954V5.46822C80.8954 3.97672 81.5036 3.39223 82.5465 3.39223C83.0098 3.39223 83.5313 3.50879 84.0235 3.68462L84.8055 0.525636C84.1684 0.292387 83.1256 0 81.9381 0C78.0569 0 76.6375 2.51507 76.6375 5.58564ZM66.7292 17.7214C64.9622 17.7214 64.0934 16.1133 64.0934 13.5989C64.0934 11.0833 64.9622 9.47501 66.7292 9.47501C68.4673 9.47501 69.3648 11.0833 69.3648 13.5989C69.3648 16.1133 68.4673 17.7214 66.7292 17.7214ZM66.7291 5.99482C63.0796 5.99482 59.7196 8.773 59.7196 13.5989C59.7196 18.4235 63.0796 21.2014 66.7291 21.2014C70.3498 21.2014 73.71 18.4235 73.71 13.5989C73.71 8.773 70.3498 5.99482 66.7291 5.99482ZM55.2287 17.7214C53.3749 17.7214 52.0135 16.1134 52.0135 13.5989C52.0135 11.0834 53.3166 9.47504 55.3736 9.47504C56.0396 9.47504 56.6189 9.738 57.3142 10.3231L59.3126 7.54489C58.241 6.63844 56.8797 5.99482 55.1127 5.99482C51.1445 5.99482 47.6397 8.773 47.6397 13.5989C47.6397 18.4235 50.739 21.2014 54.7361 21.2014C56.3003 21.2014 58.0671 20.7337 59.4863 19.4762L57.8065 16.6693C57.0534 17.2535 56.1556 17.7214 55.2287 17.7214ZM31.04 12.0194C31.3299 10.1769 32.4885 9.26979 33.8206 9.26979C35.5296 9.26979 36.225 10.4105 36.225 12.0194H31.04ZM33.7338 5.99482C30.2869 5.99482 26.9561 8.88998 26.9561 13.5989C26.9561 18.3941 30.1131 21.2014 34.2261 21.2014C35.9351 21.2014 37.8467 20.5877 39.3241 19.5642L37.9049 16.9614C36.862 17.6046 35.8772 17.9264 34.8055 17.9264C32.8938 17.9264 31.4454 16.9614 31.069 14.8554H39.6717C39.7587 14.505 39.8456 13.7156 39.8456 12.955C39.8456 9.00711 37.818 5.99482 33.7338 5.99482ZM20.6684 5.99466C18.7278 5.99466 17.4951 6.61173 16.4234 7.57716L16.4394 5.3806V0.35017H12.1816V20.8503H16.4394V11.0544C17.3661 10.1474 18.0324 9.65028 19.1042 9.65028C20.3207 9.65028 20.8712 10.2938 20.8712 12.3995V20.8503H25.1289V11.8438C25.1289 8.2172 23.7966 5.99466 20.6684 5.99466ZM8.08664 17.8387C6.95706 17.8387 6.23282 17.1659 6.23282 15.5282V9.70898H9.67957V6.3456H6.23282V2.48543H1.9606V6.3456L0 6.33684L0.00526048 9.70898H1.9751V15.5867C1.9751 18.9495 3.36514 21.2012 6.92805 21.2012C8.31838 21.2012 9.36095 20.9091 10.1142 20.6747L9.44796 17.5457C9.07148 17.6924 8.54999 17.8387 8.08664 17.8387Z" fill="#000205"/>
</g>
<path fill-rule="evenodd" clip-rule="evenodd" d="M176.108 11.9915C176.108 13.5074 174.881 14.748 173.377 14.748C171.878 14.748 170.647 13.5074 170.647 11.9915C170.647 10.4751 171.878 9.23584 173.377 9.23584C174.919 9.23584 176.108 10.514 176.108 11.9915Z" fill="#000205"/>
<path fill-rule="evenodd" clip-rule="evenodd" d="M193.46 5.84863V19.7097H190.36V18.7257H179.439V15.8914H190.36V8.68351H179.596V5.84863H193.46Z" fill="#000205"/>
<path fill-rule="evenodd" clip-rule="evenodd" d="M196.693 10.2188H210.91V13.213H197.552C197.415 13.4089 197.142 13.5468 196.848 13.5857L196.693 10.2188Z" fill="#000205"/>
<path fill-rule="evenodd" clip-rule="evenodd" d="M217.079 15.122C217.079 16.5784 217.704 17.0305 219.401 17.0305H223.205C224.335 17.0111 226.539 16.796 227.612 16.5784L227.729 19.6109C226.753 19.7672 224.531 19.8862 223.438 19.8862H219.285C215.657 19.8862 214.078 18.409 214.078 15.1031V3.74219L217.724 3.90022C217.704 4.13505 217.549 4.33299 217.079 4.3917V9.96255C219.362 9.17481 222.854 7.71819 225.018 6.47903L226.967 9.27486C226.87 9.33371 226.753 9.35323 226.618 9.35323C226.5 9.35323 226.382 9.33371 226.285 9.31361C224.647 10.1018 220.376 11.8331 217.079 12.7584V15.122Z" fill="#000205"/>
<path fill-rule="evenodd" clip-rule="evenodd" d="M229.791 10.2188H244.008V13.213H230.65C230.513 13.4089 230.24 13.5468 229.947 13.5857L229.791 10.2188Z" fill="#000205"/>
<path fill-rule="evenodd" clip-rule="evenodd" d="M163.604 4.9375V7.45673H167.309V10.311H163.604C163.604 13.2046 163.409 17.9297 157.539 20.824C156.992 20.1942 156.094 19.2893 155.355 18.7381C160.483 16.3753 160.601 12.9097 160.601 10.311H156.505V14.387H153.541V10.311H150.383V7.45673H153.541V3.53958L157.129 3.75647C157.11 3.97235 156.914 4.22742 156.505 4.30651V7.45673H160.601V3.32227L164.227 3.51963C164.207 3.75647 164.013 3.93331 163.604 4.01039V4.79927" fill="#000205"/>
<path fill-rule="evenodd" clip-rule="evenodd" d="M170.542 4.33402C170.075 3.61662 169.345 2.67615 168.596 1.99951L169.753 1.05762C170.563 1.79512 171.213 2.55099 171.739 3.33097L170.542 4.33402Z" fill="#000205"/>
<path fill-rule="evenodd" clip-rule="evenodd" d="M168.016 6.42635C167.549 5.70866 166.819 4.7682 166.069 4.09185L167.226 3.15039C168.036 3.8866 168.686 4.64577 169.213 5.42231L168.016 6.42635Z" fill="#000205"/>
</svg>
