<?xml version="1.0" encoding="UTF-8"?>
<svg width="51px" height="51px" viewBox="0 0 51 51" version="1.1" xmlns="http://www.w3.org/2000/svg" xmlns:xlink="http://www.w3.org/1999/xlink">
    <title>Group 3</title>
    <defs>
        <polygon id="path-1" points="0 0.000510000014 50.7089614 0.000510000014 50.7089614 50.7064114 0 50.7064114"></polygon>
    </defs>
    <g id="home-(desktop)" stroke="none" stroke-width="1" fill="none" fill-rule="evenodd">
        <g id="home" transform="translate(-791.000000, -3082.000000)">
            <g id="Group-3" transform="translate(791.000000, 3082.000000)">
                <mask id="mask-2" fill="white">
                    <use xlink:href="#path-1"></use>
                </mask>
                <g id="Clip-2"></g>
                <path d="M41.0189612,22.8808106 C40.5038611,22.8808106 40.1995611,22.7567106 39.7133611,22.4915106 C35.126761,19.7392106 28.0037608,18.2245105 21.1153606,18.2245105 C17.6779605,18.2245105 14.1878604,18.5747105 10.9901603,19.4434105 C10.6195603,19.5335105 10.1554603,19.7188106 9.68966027,19.7188106 C8.33646023,19.7188106 7.2994602,18.6478105 7.2994602,17.2963105 C7.2994602,15.9176104 8.15286023,15.1458104 9.07256025,14.8738104 C12.6867604,13.8096104 16.7225605,13.3132104 21.1068606,13.3132104 C28.5528608,13.3132104 36.383061,14.8432104 42.1069612,18.2058105 C42.8787612,18.6410105 43.4125612,19.3006105 43.4125612,20.5076106 C43.4108612,21.8880106 42.3007612,22.8808106 41.0189612,22.8808106 M37.8756611,30.6855109 C37.326561,30.6855109 36.978061,30.4628109 36.604061,30.2452108 C32.4815609,27.7972108 26.7644608,26.1737107 20.5050606,26.1737107 C17.2937605,26.1737107 14.5227604,26.6242107 12.2294603,27.2328108 C11.7364603,27.3705108 11.4576603,27.5167108 10.9952603,27.5167108 C9.90556028,27.5167108 9.01646025,26.6259107 9.01646025,25.5294107 C9.01646025,24.4516107 9.53836027,23.7104107 10.5923603,23.4129107 C13.4415604,22.6292106 16.3536605,22.0257106 20.5883606,22.0257106 C27.2268608,22.0257106 33.6460609,23.6798107 38.6933611,26.6990107 C39.5416611,27.1852108 39.8510611,27.8023108 39.8510611,28.7033108 C39.8510611,29.7981108 38.9772611,30.6855109 37.8756611,30.6855109 M35.111461,37.397111 C34.701761,37.397111 34.421261,37.256011 34.038761,37.021411 C30.3633609,34.796111 25.7835607,33.6299109 20.9215606,33.6299109 C18.2066605,33.6299109 15.4781604,33.978411 12.9230604,34.508811 C12.5082604,34.598911 11.9863603,34.758711 11.6735603,34.758711 C10.7096603,34.758711 10.0687603,33.993711 10.0687603,33.1641109 C10.0687603,32.0999109 10.6824603,31.5678109 11.4474603,31.4216109 C14.5805604,30.7076109 17.6983605,30.2996108 20.9368606,30.2996108 C26.4856607,30.2996108 31.4309609,31.5729109 35.684361,34.124611 C36.316761,34.493511 36.689061,34.870911 36.689061,35.811011 C36.689061,36.725611 35.946161,37.397111 35.111461,37.397111 M25.3551607,0.000510000014 C11.3522603,0.000510000014 -0.00034000001,11.3514103 -0.00034000001,25.3560107 C-0.00034000001,39.3572111 11.3522603,50.7064114 25.3551607,50.7064114 C39.3546611,50.7064114 50.7089614,39.3572111 50.7089614,25.3543107 C50.7089614,11.3514103 39.3546611,0.000510000014 25.3551607,0.000510000014" id="Fill-1" fill="#020303" mask="url(#mask-2)"></path>
            </g>
        </g>
    </g>
</svg>